<svg width="68" height="67" viewBox="0 0 68 67" fill="none" xmlns="http://www.w3.org/2000/svg">
<path d="M50.2438 20.7802C50.2018 20.6508 50.0296 20.6211 49.9443 20.7267C49.4023 21.3973 48.7973 21.952 48.7973 21.952C47.8181 22.7877 46.695 23.4614 45.4657 23.8643C44.7365 24.1038 43.9804 24.2391 43.2197 24.2837C42.3467 24.3343 41.4648 24.2644 40.6083 24.074C39.9794 23.9342 39.3536 23.7379 38.7666 23.4718C37.3666 22.8383 36.0504 21.7795 34.4947 21.4821C32.6829 21.1356 30.8441 21.2412 29.2045 22.1215C29.1252 22.1647 29.0548 22.2033 29.0054 22.2345C28.5936 22.5037 28.2208 22.8264 27.8944 23.1937C27.3658 23.79 26.963 24.4978 26.7489 25.28C26.6261 25.7306 26.5662 26.37 26.5902 26.8146C26.6456 27.8675 26.8836 28.55 27.0708 28.9322C27.511 29.8274 28.4379 30.6363 29.5714 30.7999C30.4473 30.9263 31.4595 30.6497 32.0779 29.982C32.4373 29.5924 32.6065 29.0824 32.587 28.5575C32.5646 27.9522 32.2831 27.4169 31.8518 27.0541C31.5209 26.776 31.1017 26.6094 30.645 26.5797C30.5746 26.5752 30.5057 26.5648 30.4354 26.5678C30.046 26.5812 29.6882 26.7061 29.3842 26.9039C28.9964 27.1552 28.6969 27.5255 28.5457 27.9641C28.5487 28.0444 28.4858 28.1113 28.4049 28.1143C28.3301 28.1173 28.2717 28.0608 28.2612 27.9894C28.2193 27.4243 28.3031 26.9381 28.4529 26.5217C28.8272 25.4763 29.6178 24.8845 29.9053 24.6986C29.9562 24.6659 29.9936 24.6436 30.0071 24.6361C30.3635 24.4488 30.7423 24.3001 31.1391 24.1915C31.5494 24.08 31.9776 24.0116 32.4208 23.9967C34.5111 23.9223 36.4771 25.051 37.5058 26.8518C37.666 27.1329 37.8008 27.4273 37.9236 27.7247C38.0688 28.1411 38.56 29.7248 38.7322 32.3583C38.7576 32.742 38.7756 33.1465 38.7846 33.5747C38.7891 33.7844 38.7935 33.9971 38.7935 34.2171V42.8242C38.7935 44.512 37.9191 44.906 37.3696 44.9878C37.2004 45.0131 37.0776 45.1559 37.0776 45.3254C37.0776 45.5142 37.2318 45.6674 37.422 45.6674H44.3787C44.5703 45.6674 44.726 45.5127 44.726 45.3224C44.726 45.1484 44.5958 45.0042 44.4236 44.9804C44.2169 44.9506 43.9564 44.8912 43.7932 44.7811C43.3754 44.4986 42.9547 43.9736 42.9547 42.8242V29.3396C42.9547 29.3263 42.9547 29.3129 42.9547 29.2995C42.9577 29.1835 42.9592 29.0645 42.9607 28.95C42.9801 28.1455 43.7093 27.5537 44.5104 27.6667C46.162 27.9002 47.6578 27.8437 48.6521 27.2429C51.4147 25.573 50.7349 22.2792 50.2453 20.7817L50.2438 20.7802Z" fill="white"/>
<path d="M23.3305 24.831C23.3305 23.0005 24.3621 22.6912 24.8892 22.6525C25.0614 22.6391 25.1917 22.4919 25.1917 22.3209C25.1917 22.1365 25.0419 21.9878 24.8563 21.9878H17.8786C17.6929 21.9878 17.5432 22.1365 17.5432 22.3209C17.5432 22.4919 17.6735 22.6391 17.8457 22.6525C18.3727 22.6912 19.4044 23.0005 19.4044 24.831V32.012C19.4703 34.2306 19.4673 36.5147 19.4044 38.552V38.5594C19.361 39.932 19.2906 41.1915 19.1948 42.2428C19.0316 43.3834 18.7321 44.4541 18.1841 44.7173C18.0583 44.7782 17.967 44.8913 17.967 45.0296V45.1604C17.967 45.3448 18.1182 45.495 18.3039 45.495H30.7708L30.7528 45.489C33.0078 45.3879 35.0412 43.7537 35.6357 41.5811C35.7584 41.1305 35.8094 40.6904 35.8019 40.2457C35.7959 39.9171 35.7599 39.587 35.6986 39.2509C35.6956 39.2241 35.6926 39.1974 35.6896 39.1721C35.6866 39.1527 35.6791 39.1364 35.6731 39.1185C35.5967 38.7334 35.4799 38.32 35.3137 37.9289C34.863 36.8642 33.9811 36.1623 32.8132 36.0612C31.9312 35.9853 30.925 36.2114 30.3066 36.8791C29.9472 37.2687 29.778 37.7787 29.7975 38.3036C29.82 38.9089 30.1015 39.4442 30.5327 39.8071C30.913 40.1268 31.4116 40.3126 31.9492 40.2933C32.8356 40.2621 33.5678 39.6806 33.8388 38.897C33.8359 38.8167 33.8987 38.7498 33.9796 38.7468C34.0545 38.7438 34.1129 38.8003 34.1233 38.8717C34.291 41.1052 32.5047 42.1551 32.3774 42.225C31.6542 42.6042 30.8352 42.8332 29.9622 42.8644C29.6687 42.8748 29.3768 42.8614 29.0863 42.8258H27.4736C25.1782 42.8258 23.3185 40.9788 23.3185 38.6992L23.3305 32.3421C23.3305 32.3421 23.3305 30.8446 23.3305 30.1844V24.831Z" fill="white"/>
<path d="M57.2439 39.7967C57.5299 38.3959 57.3323 36.7512 56.8591 35.4471C56.5417 34.2515 58.9419 34.1117 58.8446 30.9443V30.9056C58.7817 29.8617 58.4358 28.8907 57.6362 28.1412C57.2904 27.7739 56.7408 27.475 56.5327 27.0259C56.3845 26.6765 56.6974 26.0341 56.7363 25.5805C56.9415 24.3805 56.8471 22.9024 56.4399 21.7365C56.386 21.57 56.3291 21.4228 56.2692 21.2726C56.0386 20.7372 56.061 20.7149 55.7032 20.9588C54.9066 21.5283 54.366 22.4637 54.0022 23.3708C53.234 25.2177 53.6668 27.2267 52.3835 28.8892C51.0808 30.7629 48.8408 31.2105 48.4874 31.2908C48.4111 31.3101 48.4111 31.3161 48.4874 31.3295C49.4637 31.3949 52.2503 32.2142 53.2909 34.5757C53.7476 35.5155 53.7821 36.3408 54.0351 37.2866C54.3271 38.4851 54.9919 39.8428 55.9353 40.6993C56.1104 40.857 56.2766 40.9789 56.4638 41.0949C56.8382 41.312 56.8142 41.2912 57.0044 40.7395C57.1017 40.4287 57.178 40.1328 57.2409 39.7937L57.2439 39.7967Z" fill="white"/>
<path d="M47.2443 52.1626C48.4332 51.3492 49.643 50.0688 50.1911 48.6963C50.2914 48.442 50.3558 48.213 50.4052 47.9631C50.4875 47.4709 50.4756 47.5051 49.7943 47.5304C49.6041 47.5438 49.4229 47.5587 49.2193 47.584C47.3701 47.7817 45.4415 48.7186 44.0684 49.8993C42.893 50.738 41.7445 48.2174 38.3276 49.645L38.2871 49.6628C37.1731 50.164 36.2537 50.9402 35.7626 52.1135C35.5036 52.6384 35.4033 53.3552 34.999 53.7641C34.677 54.069 33.8475 54.002 33.3354 54.1493C31.9384 54.4288 30.3617 55.1486 29.2566 56.072C29.0964 56.1999 28.9602 56.3218 28.8194 56.4482C28.3298 56.9196 28.2968 56.9047 28.7101 57.1873C29.6624 57.8059 30.9082 57.9948 32.0477 58.0081C34.3836 58.0632 36.3975 56.759 38.7468 57.4446C41.3313 58.0617 42.7448 60.2803 42.9783 60.6268C43.0307 60.7012 43.0382 60.6982 43.0203 60.609C42.6893 59.5145 42.4333 56.2088 44.588 54.0927C45.4265 53.2094 46.3144 52.8288 47.2443 52.1611V52.1626Z" fill="white"/>
<path d="M59.0347 37.9899C59.0766 39.0784 59.9975 39.9275 61.095 39.8874C62.1911 39.8457 63.0461 38.9312 63.0056 37.8427C62.9637 36.7542 62.0428 35.9051 60.9468 35.9452C59.8507 35.9869 58.9957 36.9014 59.0362 37.9899H59.0347Z" fill="white"/>
<path d="M47.3058 55.3496C43.9922 58.0441 44.7454 63.3038 44.958 64.4637C47.8748 63.457 50.6015 62.0577 53.0766 60.3327C59.8027 54.5362 54.4003 48.4155 54.4003 48.4155C52.9314 51.0223 51.0447 52.3101 47.3058 55.3481V55.3496Z" fill="white"/>
<path d="M44.1418 63.7006C42.7417 62.3534 39.6961 60.0886 36.7823 60.2061C35.7237 60.2046 34.6501 60.4499 33.6229 60.5317C32.3726 60.6314 31.1687 60.4024 29.9918 59.983C28.4705 59.4521 27.072 58.5763 25.4848 58.2328C23.2612 57.7539 20.9703 58.2268 18.8486 57.3762C17.2509 56.7755 15.8988 55.6736 14.7458 54.4438C14.2697 53.9397 13.786 53.3434 13.4326 52.8987C13.0613 52.4348 12.8592 52.1968 12.8352 52.3188C13.4386 55.504 15.0603 59.6053 17.9666 62.1526C23.0845 64.9825 29.0245 66.4992 35.3059 66.2643C38.6585 66.1394 41.8733 65.5223 44.8889 64.4888C44.7961 64.2761 44.4697 64.0441 44.1418 63.7021V63.7006Z" fill="white"/>
<path d="M27.1261 8.19257C30.7901 8.20744 32.8999 6.1464 33.8312 4.91215C34.1307 4.51511 34.7311 4.49578 35.0321 4.89282C38.5015 9.47738 41.2176 7.10108 43.823 6.98063C44.8772 6.93156 46.0885 7.20964 47.1846 7.5695C50.5791 8.83349 52.3968 11.6291 52.3968 11.6291C52.3909 11.4432 52.3804 11.2618 52.3669 11.0834C52.0719 7.17097 49.4725 3.7701 45.8025 2.31577C36.3992 -1.41076 27.9541 0.479271 27.9541 0.479271C24.946 1.19751 22.0351 2.3351 19.3144 3.87271C19.2965 3.88312 19.2785 3.89353 19.259 3.90393C19.2635 3.90988 19.271 3.91881 19.277 3.92475C19.7966 4.56716 23.0922 8.42307 27.1276 8.19257H27.1261Z" fill="white"/>
<path d="M55.5022 15.5545C55.4648 15.8995 55.8945 16.0794 56.1296 15.8237C56.7885 15.1054 57.7063 14.4526 58.5119 15.1262C59.6289 16.0631 60.1006 20.7577 60.2593 22.8886C60.2863 23.2559 60.7894 23.3451 60.9466 23.012C61.2446 22.3845 61.4033 21.6915 61.4871 21.1547C61.5351 20.8513 61.9094 20.7443 62.1145 20.9733C63.1267 22.1138 65.0448 23.5072 65.6498 23.9355C65.7696 24.0202 65.8399 24.0678 65.8399 24.0678C64.0746 17.388 60.3971 12.5284 57.1733 9.3446C55.8436 8.03154 54.5919 7.00399 53.5826 6.25155C53.2532 6.00618 52.8385 6.41958 53.081 6.7497C55.6086 10.1818 55.7089 13.6541 55.5052 15.5545H55.5022Z" fill="white"/>
<path d="M15.5562 16.9735C15.1399 17.3289 14.8944 17.6665 14.8345 17.8479C14.9543 17.8628 15.083 17.8851 15.2283 17.9193C16.0174 18.1037 16.8349 18.1483 17.6405 18.0814C18.515 18.01 19.3819 17.8152 20.2055 17.5148C20.6337 17.3587 21.0694 17.1876 21.4483 16.9334C21.6219 16.8174 21.7627 16.6464 21.9529 16.5557C22.5084 16.288 22.9606 16.9497 23.3723 17.2114C23.3858 17.2189 23.3978 17.2278 23.4113 17.2352C23.4367 17.2516 23.4637 17.2665 23.4906 17.2828C23.5176 17.2977 23.543 17.3111 23.57 17.3259C23.6553 17.3706 23.7452 17.4122 23.8395 17.4464C23.874 17.4583 23.8994 17.4746 23.9234 17.491C24.1585 17.5847 24.3726 17.6412 24.5493 17.6724C24.5642 17.6754 24.5762 17.6858 24.5822 17.6992C25.0239 18.8472 25.3938 19.8361 25.4986 20.187C25.5151 20.242 25.5345 20.2911 25.557 20.3387C25.6887 20.184 25.9223 20.0101 26.2113 19.8584C26.5213 19.7052 26.8177 19.619 27.0304 19.6041C27.0049 19.558 26.978 19.5134 26.9435 19.4673C26.7219 19.1743 26.1439 18.2895 25.4791 17.2531C25.4701 17.2397 25.4701 17.2248 25.4761 17.21C25.557 17.0493 25.6393 16.8456 25.7037 16.6018C25.7037 16.5735 25.7067 16.5423 25.7172 16.5081C25.7471 16.4114 25.7666 16.3162 25.7816 16.2211C25.7861 16.1913 25.7906 16.1631 25.7936 16.1318C25.7966 16.1006 25.801 16.0709 25.804 16.0396C25.804 16.0248 25.807 16.0099 25.8085 15.995C25.843 15.5103 25.5794 14.7548 26.126 14.4723C26.3131 14.3756 26.5347 14.3637 26.7324 14.2953C27.1636 14.1452 27.5634 13.8998 27.9438 13.6515C28.6775 13.1726 29.3513 12.6001 29.9307 11.9443C30.4653 11.3406 30.9175 10.6625 31.2379 9.92492C31.2963 9.7896 31.3562 9.67361 31.4146 9.56952C31.2319 9.50706 30.8127 9.5026 30.2781 9.62305C30.0909 9.66469 29.8903 9.72268 29.6822 9.79703C28.4349 10.1539 25.5824 10.9198 24.5717 10.7904C23.8156 10.6922 23.3978 10.4067 23.1777 10.1807C23.1103 10.0781 23.0384 9.98143 22.9621 9.88774C22.9082 9.82083 22.8528 9.7554 22.7959 9.69443C22.3332 9.20965 21.7807 8.93455 21.2821 8.94942C21.2716 8.94942 21.2611 8.94644 21.2536 8.93901L20.4166 8.2059C20.3926 8.18508 20.2938 8.23118 20.2968 8.26389L20.3896 9.36876C20.3896 9.37917 20.3866 9.38958 20.3806 9.3985C20.0707 9.78811 19.9644 10.3919 20.0797 11.0506C20.0947 11.1324 20.1141 11.2157 20.1366 11.2975C20.168 11.4149 20.2025 11.5294 20.2444 11.6439C20.2953 11.9532 20.2773 12.4588 19.9045 13.1191C19.4074 14.0009 17.0865 15.8181 16.0548 16.6003C15.8691 16.7222 15.7029 16.8471 15.5577 16.972L15.5562 16.9735Z" fill="white"/>
<path d="M35.947 9.41476C35.6326 9.39841 35.3361 9.47573 35.0756 9.61106L35.0711 9.60808C35.0711 9.60808 35.0591 9.617 35.0531 9.62295C34.8674 9.72258 34.7042 9.85493 34.568 10.014C30.7317 13.2915 29.5878 19.8092 29.5878 19.8092C29.5294 19.9341 29.6791 20.0263 29.7914 19.9445C30.585 19.369 33.7788 17.6233 37.5671 18.9869C40.7221 20.123 41.6789 20.923 42.5668 20.8665C43.1418 20.8293 43.7677 20.126 43.8485 19.5311C43.8874 19.2441 43.8934 18.9675 43.8305 18.7028L43.8335 18.6984L43.8231 18.6776C43.7512 18.3891 43.6119 18.1244 43.4233 17.8969L43.4053 17.8627C43.3888 17.8463 43.3724 17.8329 43.3574 17.8166C43.311 17.766 43.2601 17.7199 43.2076 17.6753C42.1969 16.7028 41.0515 16.044 39.7383 15.6425L39.7473 15.6381C39.6125 15.6306 39.5077 15.5176 39.5152 15.3838C39.5212 15.2648 39.614 15.1741 39.7293 15.1592C40.8508 15.2157 42.0173 15.4343 43.1882 15.9027C43.3319 15.9459 43.4802 15.9801 43.6359 15.9875C44.6451 16.0395 45.5046 15.2693 45.557 14.267C45.5989 13.4595 45.1003 12.7562 44.3786 12.4825C43.3529 11.9859 40.9467 11.339 37.1104 13.2781C37.0071 13.3212 36.8858 13.293 36.8185 13.1993C36.7825 13.1487 36.7705 13.0893 36.7765 13.0313L36.8529 12.884C36.8604 12.8766 36.8664 12.8662 36.8754 12.8602H36.8649L37.3306 11.9636C37.3665 11.9026 37.4009 11.8401 37.4294 11.7747L37.4533 11.7271L37.4474 11.7227C37.5117 11.5576 37.5582 11.3821 37.5686 11.1948C37.6151 10.2594 36.8903 9.46384 35.9485 9.41625L35.947 9.41476Z" fill="white"/>
<path d="M19.0853 54.4722C19.3369 54.5302 19.6004 54.56 19.8714 54.554C21.794 54.6566 26.7787 54.3399 32.1032 49.2676C32.2096 49.1665 32.1092 48.988 31.9685 49.0267C30.269 49.4877 24.9639 50.6713 21.1591 48.707C20.7144 48.4899 20.2113 48.3754 19.6812 48.3947C17.9683 48.4557 16.4125 49.7791 16.4739 51.4818C16.5248 52.8856 17.7302 54.1391 19.0374 54.4633C19.0374 54.4633 19.0569 54.4693 19.0868 54.4737L19.0853 54.4722Z" fill="white"/>
<path d="M45.9718 19.8908C49.4411 17.8253 50.3365 15.2631 50.5656 14.2237C50.5656 14.2237 50.5656 14.2207 50.5671 14.2192C50.5746 14.1969 50.5746 14.1746 50.5806 14.1523C50.5866 14.1225 50.5941 14.0913 50.5986 14.0645C50.6165 13.9828 50.6315 13.9024 50.636 13.8221C50.6405 13.779 50.6435 13.7493 50.6435 13.7493H50.636C50.651 13.0132 50.1868 12.3247 49.4426 12.0942C48.5412 11.8146 47.5829 12.3143 47.3029 13.2095C47.2161 13.4861 47.2116 13.7671 47.264 14.0333H47.2565C47.7566 16.3248 46.3551 18.9525 45.8625 19.7822C45.8205 19.8521 45.9029 19.9294 45.9718 19.8893V19.8908Z" fill="white"/>
<path d="M59.8506 47.6672C59.5047 47.3474 59.0345 47.1794 58.5629 47.2077C57.5971 47.2657 56.8604 48.091 56.9188 49.0501C56.9367 49.3475 57.0356 49.6182 57.1838 49.8546C58.494 51.8755 58.1122 54.9016 57.943 55.8756C57.9295 55.9574 58.0358 56.0035 58.0867 55.9381C58.7096 55.1559 59.2501 54.3068 59.6619 53.3967C60.0213 52.6012 60.2818 51.7595 60.4061 50.894C60.4929 50.2888 60.4929 49.6955 60.4495 49.0888C60.4121 48.5519 60.2564 48.0404 59.8506 47.6657V47.6672Z" fill="white"/>
<path d="M9.10826 44.4601C9.42869 45.0504 9.82399 45.5664 10.2957 45.9754C11.245 46.8542 12.5552 47.4505 14.3505 47.5115C14.4882 47.5412 14.6589 47.4446 14.6784 47.394C14.9389 46.3025 16.2252 39.7432 14.7907 35.4055C13.795 32.0566 10.086 30.9324 6.94908 30.8819C6.4295 30.867 5.9234 30.8715 5.43377 30.8997C5.28403 30.9086 5.23762 31.1079 5.36938 31.1778C5.8141 31.4128 6.40405 31.9139 6.89368 32.995C7.35786 34.024 7.59444 35.0694 7.72471 36.1728C7.81755 36.9579 7.83102 37.7491 7.81904 38.5387C7.79958 39.7759 7.92086 42.3723 9.10826 44.4601Z" fill="white"/>
<path d="M16.4723 26.9872C16.4723 25.5492 15.3628 24.3715 13.9478 24.2481V24.2362C5.64199 23.9298 2.26697 30.3717 2.26697 30.3717C2.1951 30.6914 2.37478 30.6126 2.37478 30.6126C4.11021 28.8639 7.14982 28.0296 10.1236 28.9531C13.0973 29.875 13.7022 29.7397 13.7022 29.7397C15.2325 29.7397 16.4723 28.5085 16.4723 26.9887V26.9872Z" fill="white"/>
<path d="M1.2622 30.3228C3.05752 25.6892 6.20046 24.9085 8.30273 23.3025C8.30273 23.3025 8.42701 23.2014 8.75194 22.892C8.78189 22.8653 8.81034 22.837 8.83879 22.8088C8.84927 22.7984 8.85526 22.7924 8.86574 22.782C8.86873 22.779 8.86723 22.7761 8.87023 22.7731C9.38532 22.2333 9.70275 21.5076 9.70275 20.7046C9.70275 19.0421 8.34616 17.6948 6.67212 17.6948C5.39339 17.6948 4.30182 18.483 3.85711 19.5953C1.04209 25.4408 1.04209 29.9644 1.04209 29.9644C1.01514 30.4953 1.2622 30.3198 1.2622 30.3198V30.3228Z" fill="white"/>
<path d="M17.5731 4.81832C17.5626 4.8228 17.5535 4.82876 17.543 4.83473C17.5716 4.82876 17.6047 4.82131 17.6319 4.81683C17.6288 4.80937 17.6258 4.80043 17.6243 4.79297C17.6077 4.80192 17.5912 4.80938 17.5731 4.81832Z" fill="white"/>
<path d="M16.5457 13.245C19.3053 10.4018 17.8724 5.55848 17.6313 4.81495C17.6882 4.80603 5.87263 9.99879 10.9891 20.1345C12.0147 17.6705 13.5525 16.3306 16.5472 13.245H16.5457Z" fill="white"/>
<path d="M11.2722 51.51C11.124 47.6095 8.65035 47.0563 7.20241 49.3686V49.3597C7.19044 49.388 7.1575 49.4028 7.12905 49.3924C7.1006 49.382 7.08712 49.3523 7.0961 49.324C7.49739 47.8147 7.84627 45.9172 7.50937 44.6577C7.00027 42.7572 5.65715 44.1878 4.56708 45.8756C4.5566 45.9023 4.52516 45.9172 4.49671 45.9068C4.46826 45.8964 4.45328 45.8652 4.46377 45.8369C4.78869 44.6949 5.13608 42.5565 5.24987 38.5563C5.37415 34.1651 4.11339 32.4104 2.92749 31.7249C2.0141 31.3323 1.36276 31.9464 1.36276 31.9464C1.02136 32.2557 0.913555 32.626 0.882111 32.8773C0.861148 33.9926 0.919544 35.1272 1.04532 36.247C1.31335 39.3058 1.99913 42.2383 3.04428 44.9893C3.486 46.3202 3.81991 47.1351 3.81991 47.1351L6.34743 51.6944C6.34743 51.6944 10.4187 57.4998 14.2459 60.004C14.2459 60.004 14.1037 59.8196 13.8821 59.4805C13.1214 58.3147 11.4174 55.3034 11.2737 51.51H11.2722Z" fill="white"/>
<path d="M67.1832 31.8783C67.1817 31.8337 67.1787 31.7905 67.1772 31.7459C67.1562 31.1392 67.1203 30.5191 67.0634 29.8856C67.0634 29.8856 67.0499 29.5496 66.9496 29.0261C66.6756 27.5882 65.7442 24.7256 62.6133 23.4824C62.6133 23.4824 61.2507 26.5487 61.7104 30.4745C62.1701 34.4003 64.8054 36.0033 64.7081 38.6354C64.6841 39.3001 64.479 39.7596 64.175 40.0972C63.8142 40.4987 63.311 40.75 62.8109 40.9359C62.1027 41.1991 61.5023 41.6035 61.0081 42.2697C60.7117 42.6683 60.5155 43.1307 60.3987 43.6125C60.3493 43.8192 60.3059 44.0364 60.2984 44.249C60.246 45.6067 60.776 47.2796 62.6926 48.9897C62.8304 49.1131 63.0565 49.0745 63.1448 48.9124C65.2411 45.1145 66.6022 40.8689 67.0469 36.3721C67.0664 36.1654 67.0829 35.9543 67.0993 35.7401C67.2012 34.4702 67.2341 33.1824 67.1847 31.8783H67.1832Z" fill="white"/>
<path d="M54.5981 45.0858C54.6595 45.0858 54.7074 45.0367 54.7074 44.9757C54.7074 44.9445 54.6939 44.9162 54.6715 44.8954C54.6685 44.8924 54.664 44.8895 54.661 44.8865H54.6595C54.6595 44.8865 54.5622 44.7928 54.4065 44.6159C54.384 44.5906 54.366 44.5712 54.366 44.5712C53.8015 43.9155 52.5602 42.2321 51.8969 39.4722C51.8969 39.4722 51.8939 39.4722 51.8924 39.4722C51.6409 38.1755 50.3456 33.0942 45.5571 33.6801C45.5571 33.6801 45.7188 37.7457 49.0325 39.2313H49.022C49.0774 39.2551 49.1178 39.3086 49.1178 39.3725C49.1178 39.4558 49.0504 39.5227 48.9666 39.5227V39.5257C48.1865 39.6238 47.3719 39.8053 46.6831 40.1413C46.6831 40.1413 47.0724 44.998 51.6498 45.1081C53.3448 45.1482 54.1938 45.1289 54.5951 45.0887L54.5981 45.0858Z" fill="white"/>
</svg>
